<mxfile host="Electron" modified="2023-11-26T18:20:34.213Z" agent="Mozilla/5.0 (Macintosh; Intel Mac OS X 10_15_7) AppleWebKit/537.36 (KHTML, like Gecko) draw.io/22.1.2 Chrome/114.0.5735.289 Electron/25.9.4 Safari/537.36" etag="WtBMEYWqXVHtHMpr8mKv" version="22.1.2" type="device">
  <diagram name="Page-1" id="DRa94c_O8cem82ncpAwe">
    <mxGraphModel dx="1975" dy="1156" grid="1" gridSize="10" guides="1" tooltips="1" connect="1" arrows="1" fold="1" page="1" pageScale="1" pageWidth="850" pageHeight="1100" math="0" shadow="0">
      <root>
        <mxCell id="0" />
        <mxCell id="1" parent="0" />
        <mxCell id="1B5d8FND39Uy7hHGJcd_-1" style="edgeStyle=orthogonalEdgeStyle;rounded=0;orthogonalLoop=1;jettySize=auto;html=1;" edge="1" parent="1" source="1B5d8FND39Uy7hHGJcd_-3" target="1B5d8FND39Uy7hHGJcd_-27">
          <mxGeometry relative="1" as="geometry" />
        </mxCell>
        <mxCell id="1B5d8FND39Uy7hHGJcd_-2" value="REST" style="edgeLabel;html=1;align=center;verticalAlign=middle;resizable=0;points=[];numbered=0;" vertex="1" connectable="0" parent="1B5d8FND39Uy7hHGJcd_-1">
          <mxGeometry x="-0.3556" y="1" relative="1" as="geometry">
            <mxPoint x="11" y="1" as="offset" />
          </mxGeometry>
        </mxCell>
        <object placeholders="1" c4Name="CRM" c4Type="Software System" c4Description="Заказы и внутренние клиенты" label="&lt;font style=&quot;font-size: 16px&quot;&gt;&lt;b&gt;%c4Name%&lt;/b&gt;&lt;/font&gt;&lt;div&gt;[%c4Type%]&lt;/div&gt;&lt;br&gt;&lt;div&gt;&lt;font style=&quot;font-size: 11px&quot;&gt;&lt;font color=&quot;#cccccc&quot;&gt;%c4Description%&lt;/font&gt;&lt;/div&gt;" id="1B5d8FND39Uy7hHGJcd_-3">
          <mxCell style="rounded=1;whiteSpace=wrap;html=1;labelBackgroundColor=none;fillColor=#1061B0;fontColor=#ffffff;align=center;arcSize=10;strokeColor=#0D5091;metaEdit=1;resizable=0;points=[[0.25,0,0],[0.5,0,0],[0.75,0,0],[1,0.25,0],[1,0.5,0],[1,0.75,0],[0.75,1,0],[0.5,1,0],[0.25,1,0],[0,0.75,0],[0,0.5,0],[0,0.25,0]];" vertex="1" parent="1">
            <mxGeometry x="90" y="320" width="240" height="120" as="geometry" />
          </mxCell>
        </object>
        <object placeholders="1" c4Name="Сайт" c4Type="Software System" c4Description="Сайт для пользователей" label="&lt;font style=&quot;font-size: 16px&quot;&gt;&lt;b&gt;%c4Name%&lt;/b&gt;&lt;/font&gt;&lt;div&gt;[%c4Type%]&lt;/div&gt;&lt;br&gt;&lt;div&gt;&lt;font style=&quot;font-size: 11px&quot;&gt;&lt;font color=&quot;#cccccc&quot;&gt;%c4Description%&lt;/font&gt;&lt;/div&gt;" id="1B5d8FND39Uy7hHGJcd_-4">
          <mxCell style="rounded=1;whiteSpace=wrap;html=1;labelBackgroundColor=none;fillColor=#1061B0;fontColor=#ffffff;align=center;arcSize=10;strokeColor=#0D5091;metaEdit=1;resizable=0;points=[[0.25,0,0],[0.5,0,0],[0.75,0,0],[1,0.25,0],[1,0.5,0],[1,0.75,0],[0.75,1,0],[0.5,1,0],[0.25,1,0],[0,0.75,0],[0,0.5,0],[0,0.25,0]];" vertex="1" parent="1">
            <mxGeometry x="850" y="320" width="240" height="120" as="geometry" />
          </mxCell>
        </object>
        <mxCell id="1B5d8FND39Uy7hHGJcd_-5" style="edgeStyle=orthogonalEdgeStyle;rounded=0;orthogonalLoop=1;jettySize=auto;html=1;" edge="1" parent="1" source="1B5d8FND39Uy7hHGJcd_-9" target="1B5d8FND39Uy7hHGJcd_-4">
          <mxGeometry relative="1" as="geometry" />
        </mxCell>
        <mxCell id="1B5d8FND39Uy7hHGJcd_-6" value="REST" style="edgeLabel;html=1;align=center;verticalAlign=middle;resizable=0;points=[];numbered=0;" vertex="1" connectable="0" parent="1B5d8FND39Uy7hHGJcd_-5">
          <mxGeometry x="-0.438" y="5" relative="1" as="geometry">
            <mxPoint as="offset" />
          </mxGeometry>
        </mxCell>
        <mxCell id="1B5d8FND39Uy7hHGJcd_-7" style="edgeStyle=orthogonalEdgeStyle;rounded=0;orthogonalLoop=1;jettySize=auto;html=1;" edge="1" parent="1" source="1B5d8FND39Uy7hHGJcd_-9" target="1B5d8FND39Uy7hHGJcd_-12">
          <mxGeometry relative="1" as="geometry">
            <Array as="points">
              <mxPoint x="450" y="570" />
              <mxPoint x="450" y="570" />
            </Array>
          </mxGeometry>
        </mxCell>
        <mxCell id="1B5d8FND39Uy7hHGJcd_-8" value="REST" style="edgeLabel;html=1;align=center;verticalAlign=middle;resizable=0;points=[];numbered=0;" vertex="1" connectable="0" parent="1B5d8FND39Uy7hHGJcd_-7">
          <mxGeometry y="1" relative="1" as="geometry">
            <mxPoint as="offset" />
          </mxGeometry>
        </mxCell>
        <object placeholders="1" c4Name="НСИ-System" c4Type="Software System" c4Description="Система управления нормативно справочной информацией" label="&lt;font style=&quot;font-size: 16px&quot;&gt;&lt;b&gt;%c4Name%&lt;/b&gt;&lt;/font&gt;&lt;div&gt;[%c4Type%]&lt;/div&gt;&lt;br&gt;&lt;div&gt;&lt;font style=&quot;font-size: 11px&quot;&gt;&lt;font color=&quot;#cccccc&quot;&gt;%c4Description%&lt;/font&gt;&lt;/div&gt;" id="1B5d8FND39Uy7hHGJcd_-9">
          <mxCell style="rounded=1;whiteSpace=wrap;html=1;labelBackgroundColor=none;fillColor=#1061B0;fontColor=#ffffff;align=center;arcSize=10;strokeColor=#0D5091;metaEdit=1;resizable=0;points=[[0.25,0,0],[0.5,0,0],[0.75,0,0],[1,0.25,0],[1,0.5,0],[1,0.75,0],[0.75,1,0],[0.5,1,0],[0.25,1,0],[0,0.75,0],[0,0.5,0],[0,0.25,0]];" vertex="1" parent="1">
            <mxGeometry x="570" y="530" width="240" height="120" as="geometry" />
          </mxCell>
        </object>
        <mxCell id="1B5d8FND39Uy7hHGJcd_-10" style="edgeStyle=orthogonalEdgeStyle;rounded=0;orthogonalLoop=1;jettySize=auto;html=1;" edge="1" parent="1" source="1B5d8FND39Uy7hHGJcd_-12" target="1B5d8FND39Uy7hHGJcd_-9">
          <mxGeometry relative="1" as="geometry" />
        </mxCell>
        <mxCell id="1B5d8FND39Uy7hHGJcd_-11" value="REST" style="edgeLabel;html=1;align=center;verticalAlign=middle;resizable=0;points=[];numbered=0;" vertex="1" connectable="0" parent="1B5d8FND39Uy7hHGJcd_-10">
          <mxGeometry x="0.1556" y="-2" relative="1" as="geometry">
            <mxPoint as="offset" />
          </mxGeometry>
        </mxCell>
        <object placeholders="1" c4Name="ERP" c4Type="Software System" c4Description="Внешние клиенты" label="&lt;font style=&quot;font-size: 16px&quot;&gt;&lt;b&gt;%c4Name%&lt;/b&gt;&lt;/font&gt;&lt;div&gt;[%c4Type%]&lt;/div&gt;&lt;br&gt;&lt;div&gt;&lt;font style=&quot;font-size: 11px&quot;&gt;&lt;font color=&quot;#cccccc&quot;&gt;%c4Description%&lt;/font&gt;&lt;/div&gt;" id="1B5d8FND39Uy7hHGJcd_-12">
          <mxCell style="rounded=1;whiteSpace=wrap;html=1;labelBackgroundColor=none;fillColor=#1061B0;fontColor=#ffffff;align=center;arcSize=10;strokeColor=#0D5091;metaEdit=1;resizable=0;points=[[0.25,0,0],[0.5,0,0],[0.75,0,0],[1,0.25,0],[1,0.5,0],[1,0.75,0],[0.75,1,0],[0.5,1,0],[0.25,1,0],[0,0.75,0],[0,0.5,0],[0,0.25,0]];" vertex="1" parent="1">
            <mxGeometry x="90" y="530" width="240" height="120" as="geometry" />
          </mxCell>
        </object>
        <object placeholders="1" c4Name="SMTP" c4Type="Software System" c4Description="Сервис отправки e-mail" label="&lt;font style=&quot;font-size: 16px&quot;&gt;&lt;b&gt;%c4Name%&lt;/b&gt;&lt;/font&gt;&lt;div&gt;[%c4Type%]&lt;/div&gt;&lt;br&gt;&lt;div&gt;&lt;font style=&quot;font-size: 11px&quot;&gt;&lt;font color=&quot;#cccccc&quot;&gt;%c4Description%&lt;/font&gt;&lt;/div&gt;" id="1B5d8FND39Uy7hHGJcd_-13">
          <mxCell style="rounded=1;whiteSpace=wrap;html=1;labelBackgroundColor=none;fillColor=#1061B0;fontColor=#ffffff;align=center;arcSize=10;strokeColor=#0D5091;metaEdit=1;resizable=0;points=[[0.25,0,0],[0.5,0,0],[0.75,0,0],[1,0.25,0],[1,0.5,0],[1,0.75,0],[0.75,1,0],[0.5,1,0],[0.25,1,0],[0,0.75,0],[0,0.5,0],[0,0.25,0]];" vertex="1" parent="1">
            <mxGeometry x="270" y="80" width="240" height="120" as="geometry" />
          </mxCell>
        </object>
        <mxCell id="1B5d8FND39Uy7hHGJcd_-14" style="edgeStyle=orthogonalEdgeStyle;rounded=0;orthogonalLoop=1;jettySize=auto;html=1;dashed=1;" edge="1" parent="1" source="1B5d8FND39Uy7hHGJcd_-16" target="1B5d8FND39Uy7hHGJcd_-4">
          <mxGeometry relative="1" as="geometry" />
        </mxCell>
        <mxCell id="1B5d8FND39Uy7hHGJcd_-15" value="browser" style="edgeLabel;html=1;align=center;verticalAlign=middle;resizable=0;points=[];numbered=0;" vertex="1" connectable="0" parent="1B5d8FND39Uy7hHGJcd_-14">
          <mxGeometry x="-0.0788" y="-1" relative="1" as="geometry">
            <mxPoint as="offset" />
          </mxGeometry>
        </mxCell>
        <object placeholders="1" c4Name="Сотрудники заказчики" c4Type="Person" c4Description="Сотрудники компании, потребители сервиса" label="&lt;font style=&quot;font-size: 16px&quot;&gt;&lt;b&gt;%c4Name%&lt;/b&gt;&lt;/font&gt;&lt;div&gt;[%c4Type%]&lt;/div&gt;&lt;br&gt;&lt;div&gt;&lt;font style=&quot;font-size: 11px&quot;&gt;&lt;font color=&quot;#cccccc&quot;&gt;%c4Description%&lt;/font&gt;&lt;/div&gt;" id="1B5d8FND39Uy7hHGJcd_-16">
          <mxCell style="html=1;fontSize=11;dashed=0;whiteSpace=wrap;fillColor=#083F75;strokeColor=#06315C;fontColor=#ffffff;shape=mxgraph.c4.person2;align=center;metaEdit=1;points=[[0.5,0,0],[1,0.5,0],[1,0.75,0],[0.75,1,0],[0.5,1,0],[0.25,1,0],[0,0.75,0],[0,0.5,0]];resizable=0;" vertex="1" parent="1">
            <mxGeometry x="870" y="30" width="200" height="180" as="geometry" />
          </mxCell>
        </object>
        <object placeholders="1" c4Name="Клиенты" c4Type="Person" c4Description="Физические и юридические лица" label="&lt;font style=&quot;font-size: 16px&quot;&gt;&lt;b&gt;%c4Name%&lt;/b&gt;&lt;/font&gt;&lt;div&gt;[%c4Type%]&lt;/div&gt;&lt;br&gt;&lt;div&gt;&lt;font style=&quot;font-size: 11px&quot;&gt;&lt;font color=&quot;#cccccc&quot;&gt;%c4Description%&lt;/font&gt;&lt;/div&gt;" id="1B5d8FND39Uy7hHGJcd_-17">
          <mxCell style="html=1;fontSize=11;dashed=0;whiteSpace=wrap;fillColor=#6C6477;strokeColor=#4D4D4D;fontColor=#ffffff;shape=mxgraph.c4.person2;align=center;metaEdit=1;points=[[0.5,0,0],[1,0.5,0],[1,0.75,0],[0.75,1,0],[0.5,1,0],[0.25,1,0],[0,0.75,0],[0,0.5,0]];resizable=0;" vertex="1" parent="1">
            <mxGeometry x="1150" y="30" width="200" height="180" as="geometry" />
          </mxCell>
        </object>
        <object placeholders="1" c4Name="Mobile App" c4Type="Software System" c4Description="Приложение для ios\android" label="&lt;font style=&quot;font-size: 16px&quot;&gt;&lt;b&gt;%c4Name%&lt;/b&gt;&lt;/font&gt;&lt;div&gt;[%c4Type%]&lt;/div&gt;&lt;br&gt;&lt;div&gt;&lt;font style=&quot;font-size: 11px&quot;&gt;&lt;font color=&quot;#cccccc&quot;&gt;%c4Description%&lt;/font&gt;&lt;/div&gt;" id="1B5d8FND39Uy7hHGJcd_-18">
          <mxCell style="rounded=1;whiteSpace=wrap;html=1;labelBackgroundColor=none;fillColor=#1061B0;fontColor=#ffffff;align=center;arcSize=10;strokeColor=#0D5091;metaEdit=1;resizable=0;points=[[0.25,0,0],[0.5,0,0],[0.75,0,0],[1,0.25,0],[1,0.5,0],[1,0.75,0],[0.75,1,0],[0.5,1,0],[0.25,1,0],[0,0.75,0],[0,0.5,0],[0,0.25,0]];" vertex="1" parent="1">
            <mxGeometry x="1130" y="530" width="240" height="120" as="geometry" />
          </mxCell>
        </object>
        <mxCell id="1B5d8FND39Uy7hHGJcd_-19" value="" style="endArrow=classic;html=1;rounded=0;dashed=1;" edge="1" parent="1" source="1B5d8FND39Uy7hHGJcd_-17" target="1B5d8FND39Uy7hHGJcd_-18">
          <mxGeometry width="50" height="50" relative="1" as="geometry">
            <mxPoint x="940" y="280" as="sourcePoint" />
            <mxPoint x="990" y="230" as="targetPoint" />
          </mxGeometry>
        </mxCell>
        <mxCell id="1B5d8FND39Uy7hHGJcd_-20" value="mobile app" style="edgeLabel;html=1;align=center;verticalAlign=middle;resizable=0;points=[];numbered=0;" vertex="1" connectable="0" parent="1B5d8FND39Uy7hHGJcd_-19">
          <mxGeometry x="0.0375" relative="1" as="geometry">
            <mxPoint as="offset" />
          </mxGeometry>
        </mxCell>
        <mxCell id="1B5d8FND39Uy7hHGJcd_-21" value="" style="endArrow=classic;html=1;rounded=0;edgeStyle=orthogonalEdgeStyle;dashed=1;" edge="1" parent="1" source="1B5d8FND39Uy7hHGJcd_-17" target="1B5d8FND39Uy7hHGJcd_-4">
          <mxGeometry width="50" height="50" relative="1" as="geometry">
            <mxPoint x="1350" y="360" as="sourcePoint" />
            <mxPoint x="1400" y="310" as="targetPoint" />
            <Array as="points">
              <mxPoint x="1200" y="270" />
              <mxPoint x="1050" y="270" />
            </Array>
          </mxGeometry>
        </mxCell>
        <mxCell id="1B5d8FND39Uy7hHGJcd_-22" value="browser" style="edgeLabel;html=1;align=center;verticalAlign=middle;resizable=0;points=[];allowArrows=1;numbered=0;" vertex="1" connectable="0" parent="1B5d8FND39Uy7hHGJcd_-21">
          <mxGeometry x="0.0828" relative="1" as="geometry">
            <mxPoint x="11" as="offset" />
          </mxGeometry>
        </mxCell>
        <mxCell id="1B5d8FND39Uy7hHGJcd_-23" style="edgeStyle=orthogonalEdgeStyle;rounded=0;orthogonalLoop=1;jettySize=auto;html=1;entryX=0;entryY=0.5;entryDx=0;entryDy=0;entryPerimeter=0;" edge="1" parent="1">
          <mxGeometry relative="1" as="geometry">
            <mxPoint x="810" y="610" as="sourcePoint" />
            <mxPoint x="1130" y="610" as="targetPoint" />
          </mxGeometry>
        </mxCell>
        <mxCell id="1B5d8FND39Uy7hHGJcd_-24" value="REST" style="edgeLabel;html=1;align=center;verticalAlign=middle;resizable=0;points=[];numbered=0;" vertex="1" connectable="0" parent="1B5d8FND39Uy7hHGJcd_-23">
          <mxGeometry x="-0.6351" y="1" relative="1" as="geometry">
            <mxPoint x="22" y="1" as="offset" />
          </mxGeometry>
        </mxCell>
        <mxCell id="1B5d8FND39Uy7hHGJcd_-25" style="edgeStyle=orthogonalEdgeStyle;rounded=0;orthogonalLoop=1;jettySize=auto;html=1;strokeWidth=1;endArrow=classicThin;endFill=1;" edge="1" parent="1" source="1B5d8FND39Uy7hHGJcd_-27" target="1B5d8FND39Uy7hHGJcd_-13">
          <mxGeometry relative="1" as="geometry">
            <Array as="points">
              <mxPoint x="480" y="260" />
              <mxPoint x="390" y="260" />
            </Array>
          </mxGeometry>
        </mxCell>
        <mxCell id="1B5d8FND39Uy7hHGJcd_-26" value="kafka" style="edgeLabel;html=1;align=center;verticalAlign=middle;resizable=0;points=[];numbered=0;" vertex="1" connectable="0" parent="1B5d8FND39Uy7hHGJcd_-25">
          <mxGeometry x="-0.2196" y="5" relative="1" as="geometry">
            <mxPoint x="5" y="-11" as="offset" />
          </mxGeometry>
        </mxCell>
        <object placeholders="1" c4Name="УПО" c4Type="Software System" c4Description="Управление порядком отображения и разрешениями на просмотр" label="&lt;font style=&quot;font-size: 16px&quot;&gt;&lt;b&gt;%c4Name%&lt;/b&gt;&lt;/font&gt;&lt;div&gt;[%c4Type%]&lt;/div&gt;&lt;br&gt;&lt;div&gt;&lt;font style=&quot;font-size: 11px&quot;&gt;&lt;font color=&quot;#cccccc&quot;&gt;%c4Description%&lt;/font&gt;&lt;/div&gt;" id="1B5d8FND39Uy7hHGJcd_-27">
          <mxCell style="rounded=1;whiteSpace=wrap;html=1;labelBackgroundColor=none;fillColor=#1061B0;fontColor=#ffffff;align=center;arcSize=10;strokeColor=#0D5091;metaEdit=1;resizable=0;points=[[0.25,0,0],[0.5,0,0],[0.75,0,0],[1,0.25,0],[1,0.5,0],[1,0.75,0],[0.75,1,0],[0.5,1,0],[0.25,1,0],[0,0.75,0],[0,0.5,0],[0,0.25,0]];" vertex="1" parent="1">
            <mxGeometry x="450" y="320" width="240" height="120" as="geometry" />
          </mxCell>
        </object>
        <mxCell id="1B5d8FND39Uy7hHGJcd_-28" style="edgeStyle=orthogonalEdgeStyle;rounded=0;orthogonalLoop=1;jettySize=auto;html=1;entryX=0;entryY=0.75;entryDx=0;entryDy=0;entryPerimeter=0;" edge="1" parent="1" source="1B5d8FND39Uy7hHGJcd_-9" target="1B5d8FND39Uy7hHGJcd_-3">
          <mxGeometry relative="1" as="geometry">
            <Array as="points">
              <mxPoint x="690" y="690" />
              <mxPoint x="70" y="690" />
              <mxPoint x="70" y="410" />
            </Array>
          </mxGeometry>
        </mxCell>
        <mxCell id="1B5d8FND39Uy7hHGJcd_-29" value="REST" style="edgeLabel;html=1;align=center;verticalAlign=middle;resizable=0;points=[];numbered=0;" vertex="1" connectable="0" parent="1B5d8FND39Uy7hHGJcd_-28">
          <mxGeometry x="-0.1" y="-1" relative="1" as="geometry">
            <mxPoint as="offset" />
          </mxGeometry>
        </mxCell>
        <mxCell id="1B5d8FND39Uy7hHGJcd_-30" style="edgeStyle=orthogonalEdgeStyle;rounded=0;orthogonalLoop=1;jettySize=auto;html=1;entryX=0.75;entryY=1;entryDx=0;entryDy=0;entryPerimeter=0;" edge="1" parent="1" source="1B5d8FND39Uy7hHGJcd_-3" target="1B5d8FND39Uy7hHGJcd_-9">
          <mxGeometry relative="1" as="geometry">
            <Array as="points">
              <mxPoint x="50" y="380" />
              <mxPoint x="50" y="720" />
              <mxPoint x="750" y="720" />
            </Array>
          </mxGeometry>
        </mxCell>
        <mxCell id="1B5d8FND39Uy7hHGJcd_-31" value="REST" style="edgeLabel;html=1;align=center;verticalAlign=middle;resizable=0;points=[];numbered=0;" vertex="1" connectable="0" parent="1B5d8FND39Uy7hHGJcd_-30">
          <mxGeometry x="0.1619" y="-4" relative="1" as="geometry">
            <mxPoint as="offset" />
          </mxGeometry>
        </mxCell>
        <mxCell id="1B5d8FND39Uy7hHGJcd_-32" style="edgeStyle=orthogonalEdgeStyle;rounded=0;orthogonalLoop=1;jettySize=auto;html=1;" edge="1" parent="1" source="1B5d8FND39Uy7hHGJcd_-12" target="1B5d8FND39Uy7hHGJcd_-27">
          <mxGeometry relative="1" as="geometry">
            <Array as="points">
              <mxPoint x="210" y="490" />
              <mxPoint x="500" y="490" />
            </Array>
          </mxGeometry>
        </mxCell>
        <mxCell id="1B5d8FND39Uy7hHGJcd_-33" value="REST" style="edgeLabel;html=1;align=center;verticalAlign=middle;resizable=0;points=[];numbered=0;" vertex="1" connectable="0" parent="1B5d8FND39Uy7hHGJcd_-32">
          <mxGeometry x="-0.3295" y="2" relative="1" as="geometry">
            <mxPoint as="offset" />
          </mxGeometry>
        </mxCell>
        <object placeholders="1" c4Name="Admin" c4Type="Person" c4Description="Администратор" label="&lt;font style=&quot;font-size: 16px&quot;&gt;&lt;b&gt;%c4Name%&lt;/b&gt;&lt;/font&gt;&lt;div&gt;[%c4Type%]&lt;/div&gt;&lt;br&gt;&lt;div&gt;&lt;font style=&quot;font-size: 11px&quot;&gt;&lt;font color=&quot;#cccccc&quot;&gt;%c4Description%&lt;/font&gt;&lt;/div&gt;" id="1B5d8FND39Uy7hHGJcd_-34">
          <mxCell style="html=1;fontSize=11;dashed=0;whiteSpace=wrap;fillColor=#083F75;strokeColor=#06315C;fontColor=#ffffff;shape=mxgraph.c4.person2;align=center;metaEdit=1;points=[[0.5,0,0],[1,0.5,0],[1,0.75,0],[0.75,1,0],[0.5,1,0],[0.25,1,0],[0,0.75,0],[0,0.5,0]];resizable=0;" vertex="1" parent="1">
            <mxGeometry x="590" y="20" width="200" height="180" as="geometry" />
          </mxCell>
        </object>
        <mxCell id="1B5d8FND39Uy7hHGJcd_-35" style="edgeStyle=orthogonalEdgeStyle;rounded=0;orthogonalLoop=1;jettySize=auto;html=1;entryX=0.75;entryY=0;entryDx=0;entryDy=0;entryPerimeter=0;dashed=1;" edge="1" parent="1" source="1B5d8FND39Uy7hHGJcd_-34" target="1B5d8FND39Uy7hHGJcd_-27">
          <mxGeometry relative="1" as="geometry" />
        </mxCell>
        <mxCell id="1B5d8FND39Uy7hHGJcd_-36" value="browser\desktop" style="edgeLabel;html=1;align=center;verticalAlign=middle;resizable=0;points=[];numbered=0;" vertex="1" connectable="0" parent="1B5d8FND39Uy7hHGJcd_-35">
          <mxGeometry x="0.0948" y="-1" relative="1" as="geometry">
            <mxPoint as="offset" />
          </mxGeometry>
        </mxCell>
        <mxCell id="1B5d8FND39Uy7hHGJcd_-37" style="edgeStyle=orthogonalEdgeStyle;rounded=0;orthogonalLoop=1;jettySize=auto;html=1;exitX=0.75;exitY=1;exitDx=0;exitDy=0;exitPerimeter=0;entryX=0.25;entryY=0;entryDx=0;entryDy=0;entryPerimeter=0;" edge="1" parent="1" source="1B5d8FND39Uy7hHGJcd_-27" target="1B5d8FND39Uy7hHGJcd_-9">
          <mxGeometry relative="1" as="geometry" />
        </mxCell>
        <mxCell id="1B5d8FND39Uy7hHGJcd_-38" value="REST" style="edgeLabel;html=1;align=center;verticalAlign=middle;resizable=0;points=[];numbered=0;" vertex="1" connectable="0" parent="1B5d8FND39Uy7hHGJcd_-37">
          <mxGeometry x="-0.1259" y="2" relative="1" as="geometry">
            <mxPoint y="-1" as="offset" />
          </mxGeometry>
        </mxCell>
        <mxCell id="1B5d8FND39Uy7hHGJcd_-39" style="edgeStyle=orthogonalEdgeStyle;rounded=0;orthogonalLoop=1;jettySize=auto;html=1;entryX=0.75;entryY=1;entryDx=0;entryDy=0;entryPerimeter=0;" edge="1" parent="1" source="1B5d8FND39Uy7hHGJcd_-18" target="1B5d8FND39Uy7hHGJcd_-4">
          <mxGeometry relative="1" as="geometry" />
        </mxCell>
        <mxCell id="1B5d8FND39Uy7hHGJcd_-40" value="REST" style="edgeLabel;html=1;align=center;verticalAlign=middle;resizable=0;points=[];numbered=0;" vertex="1" connectable="0" parent="1B5d8FND39Uy7hHGJcd_-39">
          <mxGeometry x="0.2627" y="3" relative="1" as="geometry">
            <mxPoint as="offset" />
          </mxGeometry>
        </mxCell>
        <mxCell id="1B5d8FND39Uy7hHGJcd_-41" style="edgeStyle=orthogonalEdgeStyle;rounded=0;orthogonalLoop=1;jettySize=auto;html=1;entryX=0.25;entryY=0;entryDx=0;entryDy=0;entryPerimeter=0;exitX=0;exitY=0.5;exitDx=0;exitDy=0;exitPerimeter=0;dashed=1;" edge="1" parent="1" source="1B5d8FND39Uy7hHGJcd_-34" target="1B5d8FND39Uy7hHGJcd_-3">
          <mxGeometry relative="1" as="geometry">
            <Array as="points">
              <mxPoint x="590" y="60" />
              <mxPoint x="150" y="60" />
            </Array>
          </mxGeometry>
        </mxCell>
        <mxCell id="1B5d8FND39Uy7hHGJcd_-42" value="browser\desktop" style="edgeLabel;html=1;align=center;verticalAlign=middle;resizable=0;points=[];numbered=0;" vertex="1" connectable="0" parent="1B5d8FND39Uy7hHGJcd_-41">
          <mxGeometry x="-0.336" y="1" relative="1" as="geometry">
            <mxPoint as="offset" />
          </mxGeometry>
        </mxCell>
        <mxCell id="1B5d8FND39Uy7hHGJcd_-43" style="edgeStyle=orthogonalEdgeStyle;rounded=0;orthogonalLoop=1;jettySize=auto;html=1;strokeWidth=1;endArrow=none;endFill=0;startArrow=classic;startFill=1;" edge="1" parent="1">
          <mxGeometry relative="1" as="geometry">
            <mxPoint x="580" y="320" as="sourcePoint" />
            <mxPoint x="490" y="200" as="targetPoint" />
            <Array as="points">
              <mxPoint x="580" y="260" />
              <mxPoint x="490" y="260" />
            </Array>
          </mxGeometry>
        </mxCell>
        <mxCell id="1B5d8FND39Uy7hHGJcd_-44" value="kafka" style="edgeLabel;html=1;align=center;verticalAlign=middle;resizable=0;points=[];numbered=0;" vertex="1" connectable="0" parent="1B5d8FND39Uy7hHGJcd_-43">
          <mxGeometry x="-0.2196" y="5" relative="1" as="geometry">
            <mxPoint x="5" y="-11" as="offset" />
          </mxGeometry>
        </mxCell>
        <mxCell id="1B5d8FND39Uy7hHGJcd_-45" style="edgeStyle=elbowEdgeStyle;rounded=0;orthogonalLoop=1;jettySize=auto;html=1;exitX=0.19;exitY=0.996;exitDx=0;exitDy=0;exitPerimeter=0;entryX=1;entryY=0.25;entryDx=0;entryDy=0;entryPerimeter=0;elbow=vertical;" edge="1" parent="1" source="1B5d8FND39Uy7hHGJcd_-4">
          <mxGeometry relative="1" as="geometry">
            <mxPoint x="890" y="410" as="sourcePoint" />
            <mxPoint x="770" y="530" as="targetPoint" />
          </mxGeometry>
        </mxCell>
        <mxCell id="1B5d8FND39Uy7hHGJcd_-46" value="REST" style="edgeLabel;html=1;align=center;verticalAlign=middle;resizable=0;points=[];numbered=0;" vertex="1" connectable="0" parent="1B5d8FND39Uy7hHGJcd_-45">
          <mxGeometry x="-0.1259" y="2" relative="1" as="geometry">
            <mxPoint y="-1" as="offset" />
          </mxGeometry>
        </mxCell>
      </root>
    </mxGraphModel>
  </diagram>
</mxfile>
